<mxfile host="Electron" modified="2023-04-27T11:54:16.637Z" agent="Mozilla/5.0 (Windows NT 10.0; Win64; x64) AppleWebKit/537.36 (KHTML, like Gecko) draw.io/21.1.2 Chrome/106.0.5249.199 Electron/21.4.3 Safari/537.36" etag="AyaOYeZtg62GGXmNBlas" version="21.1.2" type="device">
  <diagram name="Sayfa -1" id="-Zxpm7E09zaAXrr1HJge">
    <mxGraphModel dx="2600" dy="1025" grid="1" gridSize="10" guides="1" tooltips="1" connect="1" arrows="1" fold="1" page="1" pageScale="1" pageWidth="827" pageHeight="1169" math="0" shadow="0">
      <root>
        <mxCell id="0" />
        <mxCell id="1" parent="0" />
        <mxCell id="TdKwWy2U0fnH6qzneDQY-47" style="edgeStyle=orthogonalEdgeStyle;rounded=0;orthogonalLoop=1;jettySize=auto;html=1;exitX=1;exitY=0.5;exitDx=0;exitDy=0;entryX=0;entryY=0.5;entryDx=0;entryDy=0;" parent="1" source="TdKwWy2U0fnH6qzneDQY-26" target="TdKwWy2U0fnH6qzneDQY-31" edge="1">
          <mxGeometry relative="1" as="geometry" />
        </mxCell>
        <mxCell id="TdKwWy2U0fnH6qzneDQY-26" value="&lt;font style=&quot;font-size: 20px;&quot;&gt;3&lt;br&gt;(3,17)&lt;/font&gt;" style="rounded=0;whiteSpace=wrap;html=1;fillColor=#dae8fc;strokeColor=#6c8ebf;" parent="1" vertex="1">
          <mxGeometry x="-440" y="1040" width="80" height="80" as="geometry" />
        </mxCell>
        <mxCell id="TdKwWy2U0fnH6qzneDQY-45" style="edgeStyle=orthogonalEdgeStyle;rounded=0;orthogonalLoop=1;jettySize=auto;html=1;exitX=1;exitY=0.5;exitDx=0;exitDy=0;entryX=0;entryY=0.5;entryDx=0;entryDy=0;" parent="1" source="TdKwWy2U0fnH6qzneDQY-27" target="TdKwWy2U0fnH6qzneDQY-26" edge="1">
          <mxGeometry relative="1" as="geometry" />
        </mxCell>
        <mxCell id="TdKwWy2U0fnH6qzneDQY-27" value="&lt;font style=&quot;font-size: 20px;&quot;&gt;2&lt;br&gt;(2,08)&lt;/font&gt;" style="rounded=0;whiteSpace=wrap;html=1;fillColor=#dae8fc;strokeColor=#6c8ebf;" parent="1" vertex="1">
          <mxGeometry x="-560" y="1040" width="80" height="80" as="geometry" />
        </mxCell>
        <mxCell id="TdKwWy2U0fnH6qzneDQY-28" value="&lt;font style=&quot;font-size: 20px;&quot;&gt;1&lt;br&gt;(2,2)&lt;br&gt;&lt;/font&gt;" style="rounded=0;whiteSpace=wrap;html=1;fillColor=#ffe6cc;strokeColor=#d79b00;" parent="1" vertex="1">
          <mxGeometry x="-560" y="800" width="80" height="80" as="geometry" />
        </mxCell>
        <mxCell id="TdKwWy2U0fnH6qzneDQY-29" value="&lt;font style=&quot;font-size: 20px;&quot;&gt;6&lt;br&gt;(3,03)&lt;/font&gt;" style="rounded=0;whiteSpace=wrap;html=1;fillColor=#e1d5e7;strokeColor=#9673a6;" parent="1" vertex="1">
          <mxGeometry x="-40" y="920" width="80" height="80" as="geometry" />
        </mxCell>
        <mxCell id="TdKwWy2U0fnH6qzneDQY-30" value="&lt;font style=&quot;font-size: 20px;&quot;&gt;0&lt;/font&gt;" style="rounded=0;whiteSpace=wrap;html=1;fillColor=#f5f5f5;fontColor=#333333;strokeColor=#666666;" parent="1" vertex="1">
          <mxGeometry x="-720" y="920" width="80" height="80" as="geometry" />
        </mxCell>
        <mxCell id="TdKwWy2U0fnH6qzneDQY-49" style="edgeStyle=orthogonalEdgeStyle;rounded=0;orthogonalLoop=1;jettySize=auto;html=1;exitX=1;exitY=0.5;exitDx=0;exitDy=0;entryX=0;entryY=0.5;entryDx=0;entryDy=0;" parent="1" source="TdKwWy2U0fnH6qzneDQY-31" target="TdKwWy2U0fnH6qzneDQY-32" edge="1">
          <mxGeometry relative="1" as="geometry" />
        </mxCell>
        <mxCell id="TdKwWy2U0fnH6qzneDQY-31" value="&lt;font style=&quot;font-size: 20px;&quot;&gt;4&lt;br&gt;(4)&lt;/font&gt;" style="rounded=0;whiteSpace=wrap;html=1;fillColor=#dae8fc;strokeColor=#6c8ebf;" parent="1" vertex="1">
          <mxGeometry x="-318.33" y="1040" width="80" height="80" as="geometry" />
        </mxCell>
        <mxCell id="TdKwWy2U0fnH6qzneDQY-32" value="&lt;font style=&quot;font-size: 20px;&quot;&gt;5&lt;br&gt;(1,97)&lt;/font&gt;" style="rounded=0;whiteSpace=wrap;html=1;fillColor=#dae8fc;strokeColor=#6c8ebf;" parent="1" vertex="1">
          <mxGeometry x="-200" y="1040" width="80" height="80" as="geometry" />
        </mxCell>
        <mxCell id="TdKwWy2U0fnH6qzneDQY-33" value="&lt;font style=&quot;font-size: 20px;&quot;&gt;7&lt;br&gt;(3,2)&lt;/font&gt;" style="rounded=0;whiteSpace=wrap;html=1;fillColor=#e1d5e7;strokeColor=#9673a6;" parent="1" vertex="1">
          <mxGeometry x="-40" y="1160" width="80" height="80" as="geometry" />
        </mxCell>
        <mxCell id="TdKwWy2U0fnH6qzneDQY-34" value="&lt;font style=&quot;font-size: 20px;&quot;&gt;8&lt;br&gt;(2,03)&lt;/font&gt;" style="rounded=0;whiteSpace=wrap;html=1;fillColor=#d5e8d4;strokeColor=#82b366;" parent="1" vertex="1">
          <mxGeometry x="120" y="1040" width="80" height="80" as="geometry" />
        </mxCell>
        <mxCell id="TdKwWy2U0fnH6qzneDQY-35" value="&lt;font style=&quot;font-size: 20px;&quot;&gt;10&lt;br&gt;(2,17)&lt;/font&gt;" style="rounded=0;whiteSpace=wrap;html=1;fillColor=#f8cecc;strokeColor=#b85450;" parent="1" vertex="1">
          <mxGeometry x="280" y="1160" width="80" height="80" as="geometry" />
        </mxCell>
        <mxCell id="TdKwWy2U0fnH6qzneDQY-36" value="&lt;font style=&quot;font-size: 20px;&quot;&gt;9&lt;br&gt;(1,97)&lt;/font&gt;" style="rounded=0;whiteSpace=wrap;html=1;fillColor=#d5e8d4;strokeColor=#82b366;" parent="1" vertex="1">
          <mxGeometry x="120" y="1280" width="80" height="80" as="geometry" />
        </mxCell>
        <mxCell id="TdKwWy2U0fnH6qzneDQY-37" value="&lt;font style=&quot;font-size: 20px;&quot;&gt;12&lt;br&gt;(2,1)&lt;/font&gt;" style="rounded=0;whiteSpace=wrap;html=1;fillColor=#f8cecc;strokeColor=#b85450;" parent="1" vertex="1">
          <mxGeometry x="440" y="1280" width="80" height="80" as="geometry" />
        </mxCell>
        <mxCell id="TdKwWy2U0fnH6qzneDQY-39" value="&lt;font style=&quot;font-size: 20px;&quot;&gt;11&lt;br&gt;(2)&lt;/font&gt;" style="rounded=0;whiteSpace=wrap;html=1;fillColor=#f8cecc;strokeColor=#b85450;" parent="1" vertex="1">
          <mxGeometry x="440" y="1040" width="80" height="80" as="geometry" />
        </mxCell>
        <mxCell id="TdKwWy2U0fnH6qzneDQY-42" value="" style="endArrow=classic;html=1;rounded=0;entryX=0;entryY=0.5;entryDx=0;entryDy=0;exitX=1;exitY=0.5;exitDx=0;exitDy=0;" parent="1" source="TdKwWy2U0fnH6qzneDQY-30" target="TdKwWy2U0fnH6qzneDQY-28" edge="1">
          <mxGeometry width="50" height="50" relative="1" as="geometry">
            <mxPoint x="-600" y="960" as="sourcePoint" />
            <mxPoint x="-550" y="910" as="targetPoint" />
          </mxGeometry>
        </mxCell>
        <mxCell id="TdKwWy2U0fnH6qzneDQY-43" value="" style="endArrow=classic;html=1;rounded=0;entryX=0;entryY=0.5;entryDx=0;entryDy=0;" parent="1" target="TdKwWy2U0fnH6qzneDQY-27" edge="1">
          <mxGeometry width="50" height="50" relative="1" as="geometry">
            <mxPoint x="-640" y="960" as="sourcePoint" />
            <mxPoint x="-550" y="850" as="targetPoint" />
          </mxGeometry>
        </mxCell>
        <mxCell id="TdKwWy2U0fnH6qzneDQY-51" value="" style="endArrow=classic;html=1;rounded=0;entryX=0;entryY=0.5;entryDx=0;entryDy=0;" parent="1" target="TdKwWy2U0fnH6qzneDQY-29" edge="1">
          <mxGeometry width="50" height="50" relative="1" as="geometry">
            <mxPoint x="-120" y="1080" as="sourcePoint" />
            <mxPoint x="-70" y="1030" as="targetPoint" />
          </mxGeometry>
        </mxCell>
        <mxCell id="TdKwWy2U0fnH6qzneDQY-52" value="" style="endArrow=classic;html=1;rounded=0;entryX=0;entryY=0.5;entryDx=0;entryDy=0;" parent="1" target="TdKwWy2U0fnH6qzneDQY-33" edge="1">
          <mxGeometry width="50" height="50" relative="1" as="geometry">
            <mxPoint x="-120" y="1080" as="sourcePoint" />
            <mxPoint x="-30" y="970" as="targetPoint" />
          </mxGeometry>
        </mxCell>
        <mxCell id="TdKwWy2U0fnH6qzneDQY-56" value="" style="endArrow=classic;html=1;rounded=0;entryX=0;entryY=0.5;entryDx=0;entryDy=0;exitX=1;exitY=0.5;exitDx=0;exitDy=0;" parent="1" source="TdKwWy2U0fnH6qzneDQY-34" target="TdKwWy2U0fnH6qzneDQY-35" edge="1">
          <mxGeometry width="50" height="50" relative="1" as="geometry">
            <mxPoint x="190" y="1060" as="sourcePoint" />
            <mxPoint x="240" y="1010" as="targetPoint" />
          </mxGeometry>
        </mxCell>
        <mxCell id="TdKwWy2U0fnH6qzneDQY-57" value="" style="endArrow=classic;html=1;rounded=0;entryX=0;entryY=0.5;entryDx=0;entryDy=0;exitX=1;exitY=0.5;exitDx=0;exitDy=0;" parent="1" source="TdKwWy2U0fnH6qzneDQY-36" target="TdKwWy2U0fnH6qzneDQY-35" edge="1">
          <mxGeometry width="50" height="50" relative="1" as="geometry">
            <mxPoint x="190" y="1300" as="sourcePoint" />
            <mxPoint x="240" y="1250" as="targetPoint" />
          </mxGeometry>
        </mxCell>
        <mxCell id="TdKwWy2U0fnH6qzneDQY-58" value="" style="endArrow=classic;html=1;rounded=0;entryX=0;entryY=0.5;entryDx=0;entryDy=0;exitX=1;exitY=0.5;exitDx=0;exitDy=0;" parent="1" source="TdKwWy2U0fnH6qzneDQY-35" target="TdKwWy2U0fnH6qzneDQY-39" edge="1">
          <mxGeometry width="50" height="50" relative="1" as="geometry">
            <mxPoint x="350" y="1180" as="sourcePoint" />
            <mxPoint x="400" y="1130" as="targetPoint" />
          </mxGeometry>
        </mxCell>
        <mxCell id="TdKwWy2U0fnH6qzneDQY-59" value="" style="endArrow=classic;html=1;rounded=0;entryX=0;entryY=0.5;entryDx=0;entryDy=0;exitX=1;exitY=0.5;exitDx=0;exitDy=0;" parent="1" source="TdKwWy2U0fnH6qzneDQY-35" target="TdKwWy2U0fnH6qzneDQY-37" edge="1">
          <mxGeometry width="50" height="50" relative="1" as="geometry">
            <mxPoint x="350" y="1180" as="sourcePoint" />
            <mxPoint x="400" y="1130" as="targetPoint" />
          </mxGeometry>
        </mxCell>
        <mxCell id="TdKwWy2U0fnH6qzneDQY-60" value="" style="endArrow=classic;html=1;rounded=0;exitX=1;exitY=0.5;exitDx=0;exitDy=0;entryX=0;entryY=0.5;entryDx=0;entryDy=0;" parent="1" source="TdKwWy2U0fnH6qzneDQY-33" target="TdKwWy2U0fnH6qzneDQY-34" edge="1">
          <mxGeometry width="50" height="50" relative="1" as="geometry">
            <mxPoint x="-70" y="1250" as="sourcePoint" />
            <mxPoint x="10" y="1100" as="targetPoint" />
          </mxGeometry>
        </mxCell>
        <mxCell id="TdKwWy2U0fnH6qzneDQY-61" value="" style="endArrow=classic;html=1;rounded=0;exitX=1;exitY=0.5;exitDx=0;exitDy=0;entryX=0;entryY=0.5;entryDx=0;entryDy=0;" parent="1" source="TdKwWy2U0fnH6qzneDQY-33" target="TdKwWy2U0fnH6qzneDQY-36" edge="1">
          <mxGeometry width="50" height="50" relative="1" as="geometry">
            <mxPoint x="50" y="1210" as="sourcePoint" />
            <mxPoint x="130" y="1090" as="targetPoint" />
          </mxGeometry>
        </mxCell>
        <mxCell id="myxTB-QvLxmIOgaVzuRh-27" value="&lt;font style=&quot;font-size: 20px;&quot;&gt;2&lt;br&gt;(2,08)&lt;/font&gt;" style="rounded=0;whiteSpace=wrap;html=1;fillColor=#dae8fc;strokeColor=#6c8ebf;" vertex="1" parent="1">
          <mxGeometry x="-560" y="1480" width="80" height="80" as="geometry" />
        </mxCell>
        <mxCell id="myxTB-QvLxmIOgaVzuRh-28" value="&lt;font style=&quot;font-size: 20px;&quot;&gt;3&lt;br&gt;(3,17)&lt;/font&gt;" style="rounded=0;whiteSpace=wrap;html=1;fillColor=#dae8fc;strokeColor=#6c8ebf;" vertex="1" parent="1">
          <mxGeometry x="-440" y="1480" width="80" height="80" as="geometry" />
        </mxCell>
        <mxCell id="myxTB-QvLxmIOgaVzuRh-29" value="&lt;font style=&quot;font-size: 20px;&quot;&gt;4&lt;br&gt;(4)&lt;/font&gt;" style="rounded=0;whiteSpace=wrap;html=1;fillColor=#dae8fc;strokeColor=#6c8ebf;" vertex="1" parent="1">
          <mxGeometry x="-320" y="1480" width="80" height="80" as="geometry" />
        </mxCell>
        <mxCell id="myxTB-QvLxmIOgaVzuRh-30" value="&lt;font style=&quot;font-size: 20px;&quot;&gt;5&lt;br&gt;(1,97)&lt;/font&gt;" style="rounded=0;whiteSpace=wrap;html=1;fillColor=#dae8fc;strokeColor=#6c8ebf;" vertex="1" parent="1">
          <mxGeometry x="-200" y="1480" width="80" height="80" as="geometry" />
        </mxCell>
        <mxCell id="myxTB-QvLxmIOgaVzuRh-31" value="&lt;font style=&quot;font-size: 20px;&quot;&gt;7&lt;br&gt;(3,2)&lt;/font&gt;" style="rounded=0;whiteSpace=wrap;html=1;fillColor=#e1d5e7;strokeColor=#9673a6;" vertex="1" parent="1">
          <mxGeometry x="-80" y="1480" width="80" height="80" as="geometry" />
        </mxCell>
        <mxCell id="myxTB-QvLxmIOgaVzuRh-32" value="&lt;font style=&quot;font-size: 20px;&quot;&gt;8&lt;br&gt;(2,03)&lt;/font&gt;" style="rounded=0;whiteSpace=wrap;html=1;fillColor=#d5e8d4;strokeColor=#82b366;" vertex="1" parent="1">
          <mxGeometry x="40" y="1480" width="80" height="80" as="geometry" />
        </mxCell>
        <mxCell id="myxTB-QvLxmIOgaVzuRh-33" value="&lt;font style=&quot;font-size: 20px;&quot;&gt;10&lt;br&gt;(2,17)&lt;/font&gt;" style="rounded=0;whiteSpace=wrap;html=1;fillColor=#f8cecc;strokeColor=#b85450;" vertex="1" parent="1">
          <mxGeometry x="160" y="1480" width="80" height="80" as="geometry" />
        </mxCell>
        <mxCell id="myxTB-QvLxmIOgaVzuRh-34" value="&lt;font style=&quot;font-size: 20px;&quot;&gt;12&lt;br&gt;(2,1)&lt;/font&gt;" style="rounded=0;whiteSpace=wrap;html=1;fillColor=#f8cecc;strokeColor=#b85450;" vertex="1" parent="1">
          <mxGeometry x="280" y="1480" width="80" height="80" as="geometry" />
        </mxCell>
        <mxCell id="myxTB-QvLxmIOgaVzuRh-53" value="&lt;font style=&quot;font-size: 25px;&quot;&gt;&lt;b&gt;+&lt;/b&gt;&lt;/font&gt;" style="text;html=1;align=center;verticalAlign=middle;resizable=0;points=[];autosize=1;strokeColor=none;fillColor=none;" vertex="1" parent="1">
          <mxGeometry x="-480" y="1500" width="40" height="40" as="geometry" />
        </mxCell>
        <mxCell id="myxTB-QvLxmIOgaVzuRh-54" value="&lt;font style=&quot;font-size: 25px;&quot;&gt;&lt;b&gt;+&lt;/b&gt;&lt;/font&gt;" style="text;html=1;align=center;verticalAlign=middle;resizable=0;points=[];autosize=1;strokeColor=none;fillColor=none;" vertex="1" parent="1">
          <mxGeometry y="1500" width="40" height="40" as="geometry" />
        </mxCell>
        <mxCell id="myxTB-QvLxmIOgaVzuRh-55" value="&lt;font style=&quot;font-size: 25px;&quot;&gt;&lt;b&gt;+&lt;/b&gt;&lt;/font&gt;" style="text;html=1;align=center;verticalAlign=middle;resizable=0;points=[];autosize=1;strokeColor=none;fillColor=none;" vertex="1" parent="1">
          <mxGeometry x="-120" y="1500" width="40" height="40" as="geometry" />
        </mxCell>
        <mxCell id="myxTB-QvLxmIOgaVzuRh-56" value="&lt;font style=&quot;font-size: 25px;&quot;&gt;&lt;b&gt;+&lt;/b&gt;&lt;/font&gt;" style="text;html=1;align=center;verticalAlign=middle;resizable=0;points=[];autosize=1;strokeColor=none;fillColor=none;" vertex="1" parent="1">
          <mxGeometry x="-238.33" y="1500" width="40" height="40" as="geometry" />
        </mxCell>
        <mxCell id="myxTB-QvLxmIOgaVzuRh-57" value="&lt;font style=&quot;font-size: 25px;&quot;&gt;&lt;b&gt;+&lt;/b&gt;&lt;/font&gt;" style="text;html=1;align=center;verticalAlign=middle;resizable=0;points=[];autosize=1;strokeColor=none;fillColor=none;" vertex="1" parent="1">
          <mxGeometry x="-360" y="1500" width="40" height="40" as="geometry" />
        </mxCell>
        <mxCell id="myxTB-QvLxmIOgaVzuRh-58" value="&lt;font style=&quot;font-size: 25px;&quot;&gt;&lt;b&gt;+&lt;/b&gt;&lt;/font&gt;" style="text;html=1;align=center;verticalAlign=middle;resizable=0;points=[];autosize=1;strokeColor=none;fillColor=none;" vertex="1" parent="1">
          <mxGeometry x="240" y="1500" width="40" height="40" as="geometry" />
        </mxCell>
        <mxCell id="myxTB-QvLxmIOgaVzuRh-59" value="&lt;font style=&quot;font-size: 25px;&quot;&gt;&lt;b&gt;+&lt;/b&gt;&lt;/font&gt;" style="text;html=1;align=center;verticalAlign=middle;resizable=0;points=[];autosize=1;strokeColor=none;fillColor=none;" vertex="1" parent="1">
          <mxGeometry x="120" y="1500" width="40" height="40" as="geometry" />
        </mxCell>
        <mxCell id="myxTB-QvLxmIOgaVzuRh-60" value="&lt;font style=&quot;font-size: 17px;&quot;&gt;&lt;b&gt;=&lt;/b&gt;&lt;/font&gt;" style="text;html=1;align=center;verticalAlign=middle;resizable=0;points=[];autosize=1;strokeColor=none;fillColor=none;" vertex="1" parent="1">
          <mxGeometry x="360" y="1505" width="30" height="30" as="geometry" />
        </mxCell>
        <mxCell id="myxTB-QvLxmIOgaVzuRh-61" value="&lt;font style=&quot;font-size: 26px;&quot;&gt;&lt;b&gt;20,72&lt;/b&gt;&lt;/font&gt;" style="rounded=0;whiteSpace=wrap;html=1;fillColor=#ffcd28;strokeColor=#d79b00;gradientColor=#ffa500;" vertex="1" parent="1">
          <mxGeometry x="400" y="1480" width="80" height="80" as="geometry" />
        </mxCell>
      </root>
    </mxGraphModel>
  </diagram>
</mxfile>
